<?xml version="1.0" encoding="UTF-8"?>
<svg id="Calque_2" data-name="Calque 2" xmlns="http://www.w3.org/2000/svg" viewBox="0 0 518.82 518.82">
  <defs>
    <style>
      .cls-1 {
        fill: #4c1626;
      }

      .cls-2 {
        fill: #e50d4a;
      }
    </style>
  </defs>
  <g id="Calque_1-2" data-name="Calque 1">
    <g>
      <rect class="cls-1" width="518.82" height="518.82"/>
      <g>
        <path class="cls-2" d="M170.16,237.12c-23.73-13.46-40.73-25.3-51-35.61-17.31,38.98-26.02,60.78-26.02,65.35,0,6.01,12.38,16.1,37.18,30.28,22.65,13.46,35.61,20.18,38.8,20.18,6.37,0,12.38-7.45,18.03-22.29,4.26-12.42,6.37-22.83,6.37-31.35s-7.76-17.72-23.37-26.55Z"/>
        <path class="cls-2" d="M286.23,237.12c-23.73-13.46-40.73-25.3-51-35.61-17.31,38.98-26.02,60.78-26.02,65.35,0,6.01,12.38,16.1,37.18,30.28,22.65,13.46,35.61,20.18,38.8,20.18,6.37,0,12.38-7.45,18.03-22.29,4.26-12.42,6.37-22.83,6.37-31.35s-7.76-17.72-23.37-26.55Z"/>
        <path class="cls-2" d="M402.3,237.12c-23.73-13.46-40.73-25.3-51-35.61-17.31,38.98-26.02,60.78-26.02,65.35,0,6.01,12.38,16.1,37.18,30.28,22.65,13.46,35.61,20.18,38.8,20.18,6.37,0,12.38-7.45,18.03-22.29,4.26-12.42,6.37-22.83,6.37-31.35s-7.76-17.72-23.37-26.55Z"/>
      </g>
    </g>
  </g>
</svg>