<?xml version="1.0" encoding="UTF-8"?>
<svg id="Calque_2" data-name="Calque 2" xmlns="http://www.w3.org/2000/svg" xmlns:xlink="http://www.w3.org/1999/xlink" viewBox="0 0 202.17 105.67">
  <defs>
    <style>
      .cls-1 {
        fill: #e8ddd8;
      }

      .cls-2 {
        fill: #fff;
      }

      .cls-3 {
        fill: none;
      }

      .cls-4 {
        fill: url(#Dégradé_sans_nom_16-2);
      }

      .cls-5 {
        fill: #e50740;
      }

      .cls-6 {
        fill: url(#Dégradé_sans_nom_16);
      }

      .cls-7 {
        fill: url(#Dégradé_sans_nom_36);
      }

      .cls-8 {
        fill: url(#Dégradé_sans_nom_16-3);
      }
    </style>
    <linearGradient id="Dégradé_sans_nom_16" data-name="Dégradé sans nom 16" x1="14.2" y1="44.96" x2="8.92" y2="61.64" gradientUnits="userSpaceOnUse">
      <stop offset="0" stop-color="#e50740"/>
      <stop offset="1" stop-color="#691224"/>
    </linearGradient>
    <linearGradient id="Dégradé_sans_nom_36" data-name="Dégradé sans nom 36" x1="126.51" y1="73.33" x2="7.77" y2="85.05" gradientUnits="userSpaceOnUse">
      <stop offset="0" stop-color="#e50740"/>
      <stop offset=".09" stop-color="#691224"/>
      <stop offset=".1" stop-color="#721126"/>
      <stop offset=".12" stop-color="#8c0e2b"/>
      <stop offset=".15" stop-color="#b50b35"/>
      <stop offset=".18" stop-color="#e50740"/>
      <stop offset=".18" stop-color="#c90939"/>
      <stop offset=".2" stop-color="#9f0d30"/>
      <stop offset=".21" stop-color="#810f29"/>
      <stop offset=".22" stop-color="#6f1125"/>
      <stop offset=".23" stop-color="#691224"/>
      <stop offset=".38" stop-color="#e50740"/>
      <stop offset=".45" stop-color="#b11436"/>
      <stop offset=".51" stop-color="#691224"/>
      <stop offset=".62" stop-color="#e50740"/>
    </linearGradient>
    <linearGradient id="Dégradé_sans_nom_16-2" data-name="Dégradé sans nom 16" x1="147.28" y1="48.02" x2="169.42" y2="57.71" xlink:href="#Dégradé_sans_nom_16"/>
    <linearGradient id="Dégradé_sans_nom_16-3" data-name="Dégradé sans nom 16" x1="189.37" y1="52.14" x2="180.24" y2="66.79" xlink:href="#Dégradé_sans_nom_16"/>
  </defs>
  <g id="Calque_1-2" data-name="Calque 1">
    <g>
      <path class="cls-1" d="M76.66,66.42v9.43h8.46v-9.64c-2.84.14-5.5.21-7.97.21h-.49Z"/>
      <path class="cls-3" d="M141.45,43.42c1.04-.6,2.17-1.02,3.38-1.26-1.81.06-4.36.24-7.64.52v4.91c1.09-1.77,2.51-3.16,4.26-4.16Z"/>
      <path class="cls-3" d="M93.45,63.22c2.67-.2,5.5-.44,8.46-.73.22-.02.44-.04.66-.06,2.83-.27,5.79-.59,8.88-.94,5.37-.62,11.13-1.35,17.28-2.2v-15.81c-1.89.19-3.92.4-6.09.63h0c-1.89.2-3.88.41-5.98.64-2.04.22-4,.43-5.87.63-3.21.33-6.17.63-8.88.88-3.15.29-5.97.52-8.46.7-3.39.25-6.17.38-8.34.41v16.38c2.6-.12,5.38-.28,8.34-.5Z"/>
      <path class="cls-3" d="M145.23,50.78c-2.66,0-4.66.63-6.01,1.88-1.18,1.1-1.85,2.9-1.99,5.42,5.41-.76,10.04-1.41,13.91-1.96,3.82-.54,6.89-.97,9.2-1.29,3.47-.49,5.24-.73,5.29-.73,2.13-.04,3.84-.18,5.13-.42-.76-1.64-1.72-3.1-2.9-4.39-2.25-2.49-5.27-4.32-9.05-5.51-3.23-1.02-7.01-1.57-11.34-1.65v8.65h-2.24Z"/>
      <path class="cls-1" d="M80.95,28.49c-1.49,0-2.73.48-3.71,1.42-.99.95-1.48,2.13-1.48,3.53s.49,2.59,1.48,3.53c.99.95,2.22,1.42,3.71,1.42s2.73-.48,3.72-1.42c.99-.94,1.48-2.12,1.48-3.53s-.5-2.59-1.48-3.53c-.99-.94-2.23-1.42-3.72-1.42Z"/>
      <path class="cls-1" d="M128.73,67.13v8.72s8.46,0,8.46,0v-10.11c-2.08.34-4.27.7-6.58,1.08-.63.1-1.25.21-1.88.31Z"/>
      <path class="cls-2" d="M185.27,43.79c.04-.55.16-1.02.38-1.4h-4.57c-.2,1-.28,2.06-.26,3.16.08,2.73.7,4.59,1.88,5.58.69.56,1.73.91,3.12,1.06v-7.89c-.24-.14-.42-.31-.55-.51Z"/>
      <g>
        <path class="cls-5" d="M14.75,16.15c-.34,0-.93,1.03-1.76,3.08-.76,1.9-1.14,2.96-1.14,3.19,0,.61,1.03,1.5,3.08,2.68,1.52.83,3.03,1.67,4.55,2.5.68-.84,1.33-2.13,1.94-3.87.49-1.52.74-2.58.74-3.19,0-.75-2.47-2.22-7.4-4.38ZM8.26,21.05c-2.54-1.44-4.37-2.71-5.47-3.82C.94,21.41,0,23.74,0,24.24c0,.64,1.33,1.73,3.99,3.25,2.43,1.44,3.82,2.16,4.16,2.16.68,0,1.33-.8,1.93-2.39.46-1.33.68-2.45.68-3.36s-.83-1.9-2.5-2.85Z"/>
        <g>
          <path class="cls-5" d="M137.23,58.08c-2.26.32-4.65.66-7.18,1.01-.44.06-.87.12-1.31.18v7.86c.63-.1,1.25-.21,1.88-.31,2.3-.38,4.5-.74,6.58-1.08v-6.56c0-.38,0-.75.03-1.1Z"/>
          <g>
            <path class="cls-6" d="M29.03,40.03c-1.14-1.98-2.87-3.53-5.16-4.66-1.69-.82-3.62-1.34-5.83-1.57-.8-.08-1.64-.12-2.51-.12H0v23.1c0,1.59,1.29,2.87,2.88,2.87h12.65c3.46,0,6.33-.6,8.61-1.81,2.27-1.2,3.94-2.8,5.01-4.77,1.07-1.96,1.6-4.08,1.6-6.33,0-2.5-.57-4.74-1.72-6.71ZM20.36,51.23c-1.13,1.07-2.86,1.6-5.19,1.6h-6.71v-12.26h6.71c.62,0,1.2.04,1.73.12,3.43.47,5.15,2.49,5.15,6.04,0,1.94-.56,3.44-1.69,4.5Z"/>
            <path class="cls-7" d="M128.74,59.28v7.86c-3.73.6-7.32,1.15-10.77,1.65h0c-3.23.46-6.33.88-9.32,1.26-2.31.29-4.55.55-6.73.79-2.95.33-5.77.6-8.46.82-2.94.25-5.72.43-8.34.56-2.84.14-5.5.21-7.97.21h-.49s-16.7,0-16.7,0c-1.21.03-2.49-.13-3.31-.51.34,1.67.51,3.26.51,4.78,0,.61,0,1.22-.02,1.86-.14,4.07-1.82,7.92-4.61,10.88-.8.85-1.75,1.8-2.83,2.75-4.02,3.61-8.24,6.56-12.64,8.88-5.88,3.08-11.46,4.61-16.74,4.61-8.58,0-12.87-5.54-12.87-16.62,0-8.05,1.48-14.99,4.44-20.84.79-1.59,1.46-2.39,1.99-2.39.23,0,.34.23.34.68,0,.57-.23,1.38-.68,2.45-2.2,5.09-3.3,10.08-3.3,14.98,0,9.18,3.53,13.76,10.59,13.72,7.32-.04,14.93-2.64,22.83-7.8,6.52-4.29,10.13-7.61,10.82-9.96.07-.3.11-.63.11-.97,0-2.12-1.93-6.09-5.81-11.9-.11-.15-.17-.41-.17-.79,0-.61.17-1.8.51-3.57.35-1.76.38-2.93.51-3.44.1-.38.5-.43.8-.12,1.05,1.11,2.13,2.88,3.75,4.9.26.3,2.46-.08,5.76-.1h16.7s.55,0,.55,0c2.43,0,5.06-.06,7.91-.19,2.6-.12,5.38-.28,8.34-.5,2.67-.2,5.5-.44,8.46-.73.22-.02.44-.04.66-.06,2.83-.27,5.79-.59,8.88-.94,5.37-.62,11.13-1.35,17.28-2.2Z"/>
            <path class="cls-4" d="M174.23,62.99c-1.02-.89-1.53-1.81-1.53-2.77s-.04-1.53-.12-1.73c1.51-1.76,2.55-3.53,3.12-5.3.35-1.08.52-2.15.52-3.23,0-.64-.1-1.19-.28-1.64-.82-1.78-1.74-3.37-2.76-4.76-2.14-2.9-4.76-4.96-7.83-6.2-3.83-1.54-10.17-2.31-19.02-2.31-4.22,0-13.78.81-28.7,2.43-6.26.67-11.5,1.21-15.72,1.62-3.53.34-6.35.57-8.46.72-1.44.1-2.55.15-3.32.16-7.28.04-12.96-.52-17.02-1.7-3.34-1.01-4.99-2.17-4.95-3.47.08-3.04,5.77-8.75,17.08-17.1,3.23-2.39,7.21-4.81,11.96-7.25,4.1-2.09,6.72-3.24,7.88-3.45.07-.01.13-.02.2-.02,1.91-.05,3.09.7,3.54,2.25.41,1.42.83,2.13,1.25,2.13.19,0,.59-.65,1.2-1.95,1.33-2.88,1.99-4.91,1.99-6.09C113.25,1.08,111.66-.04,108.47,0c-5.77.04-14.71,4.64-26.82,13.81-5.2,3.94-9,7.41-11.39,10.41-3,3.77-5.2,8.36-6.6,13.76-.15.53-.23,1.05-.23,1.58,0,4.15,4.41,6.64,13.23,7.47v-4.64s8.46,0,8.46,0v4.95c2.17-.03,4.95-.16,8.34-.41,2.49-.17,5.31-.41,8.46-.7,2.72-.25,5.68-.54,8.88-.88,1.88-.19,3.83-.4,5.87-.63,2.1-.23,4.09-.44,5.98-.64h0c2.17-.23,4.2-.44,6.09-.63v-1.08h8.46v.28c3.28-.28,5.83-.46,7.64-.52h.01c.83-.17,1.7-.25,2.62-.25v.23c4.34.08,8.12.63,11.34,1.65,3.78,1.19,6.81,3.03,9.05,5.51,1.18,1.29,2.14,2.75,2.9,4.39-1.29.24-3.02.14-5.13.42-1.4.19-1.82.24-5.29.73-2.31.33-5.38.75-9.2,1.29-3.87.54-8.5,1.2-13.91,1.96-.02.36-.03.72-.03,1.1v6.56c5.51-.91,10.23-1.68,14.19-2.32,3.45-.56,6.31-1.02,8.59-1.38,4.15-.66,6.34-.97,6.58-1,1.84-.21,2.9-.38,4.27-1.03-.42,1.58-.53,3.51-.34,5.78.09,1.01.33,1.92.75,2.73.55-.19,1.09-.43,1.62-.73,1.54-.88,2.73-2.21,3.56-3.97-.93-.12-1.65-.4-2.16-.83Z"/>
            <path class="cls-8" d="M197.4,38.6c-2.85-3.57-5.32-5.35-7.4-5.35-2.2,0-4.25,1.12-6.15,3.36-1.42,1.71-2.34,3.63-2.76,5.77-.2,1-.28,2.06-.26,3.16.08,2.73.7,4.59,1.88,5.58.69.56,1.73.91,3.12,1.06.46.05.95.07,1.48.08h0c.09,0,1.62-.05,4.57-.11,3.77-.09,6.18.59,7.25,2.06.37.5.3,1.2-.16,1.62-3.29,3.02-6.44,5.17-9.43,6.45-1.16.5-2.4.92-3.72,1.25v7.13c.82-.32,1.66-.68,2.52-1.09,2.07-.97,3.98-2.07,5.73-3.28,4.97-3.45,8.08-9.06,8.11-15.11,0-.04,0-.08,0-.11,0-4.33-1.59-8.48-4.78-12.47ZM194.18,45.09c-1.4-.24-2.82-.32-4.24-.29-.57.01-1.14.02-1.71.02-1.07-.03-1.88-.2-2.41-.51,0,0,0,0,0,0-.37-.22-.56-.66-.47-1.08.07-.31.17-.58.31-.82.47-.81,1.37-1.22,2.69-1.22,1.25,0,2.35.4,3.3,1.2.15.11,1.01,1.02,2.56,2.73,0,0-.02,0-.03,0Z"/>
          </g>
        </g>
        <path class="cls-5" d="M188.62,16.53c-2.85-1.33-4.75-2.35-5.69-3.07-1.4,5.2-2.11,7.01-2.11,7.01-.12.34.57,1.33,1.71,1.93,2.2,1.14,4.42,2.28,6.66,3.42,1.59-1.86,2.39-4.1,2.39-6.72,0-.79-.99-1.65-2.96-2.56Z"/>
      </g>
      <g>
        <path class="cls-1" d="M0,52.83v23.02s8.46,0,8.46,0v-16.2c0-3.77-4.23-6.82-8.46-6.82h0Z"/>
        <path class="cls-1" d="M85.12,42.39v21.33c-2.85.13-5.48.19-7.91.19h-.55v-21.52s8.46,0,8.46,0Z"/>
        <path class="cls-1" d="M147.46,41.9v8.88h-2.24c-2.66,0-4.66.63-6.01,1.88-1.18,1.1-1.85,2.9-1.99,5.42-2.26.32-4.65.66-7.18,1.01-.44.06-.87.12-1.31.18v-16.89h8.46v5.19c1.09-1.77,2.51-3.16,4.26-4.16,1.04-.6,2.17-1.02,3.38-1.26h.01c.83-.17,1.7-.25,2.62-.25Z"/>
        <path class="cls-1" d="M182.7,51.13c-1.18-.99-1.8-2.85-1.88-5.58-.02-1.1.06-2.16.26-3.16h-3.78v4.77c-1.05-1.43-2.42-2.63-4.13-3.6-.13-.08-.25-.14-.38-.21-1.87-1-4.06-1.51-6.55-1.51-2.73,0-5.21.64-7.44,1.93-.11.06-.21.12-.32.18-2.32,1.41-4.15,3.42-5.5,6.04-.96,1.85-1.57,3.89-1.85,6.13-.12.93-.17,1.88-.17,2.88,0,1.55.14,3.03.42,4.42.33,1.67.87,3.23,1.61,4.67,1.35,2.64,3.18,4.68,5.5,6.13,2.31,1.45,4.88,2.18,7.7,2.18,2.5,0,4.7-.51,6.62-1.54,1.36-.73,2.5-1.59,3.44-2.59.39-.41.74-.85,1.06-1.3v4.89h8.52v-23.67c-1.38-.15-2.42-.5-3.12-1.06ZM176.39,63.82c-.09.2-.19.4-.29.59-.81,1.47-1.89,2.6-3.26,3.38-.52.3-1.06.54-1.62.73-.89.3-1.83.45-2.8.45-1.53,0-2.97-.4-4.32-1.21-1.35-.81-2.44-1.96-3.26-3.47-.38-.7-.68-1.45-.87-2.25-.25-.94-.37-1.95-.37-3.04,0-1.55.25-2.94.74-4.17.14-.37.31-.72.5-1.06.82-1.47,1.9-2.59,3.23-3.35,1.17-.67,2.43-1.05,3.78-1.13.19-.01.37-.02.56-.02,1.57,0,3.04.39,4.41,1.18,1.16.67,2.12,1.58,2.87,2.74.14.21.27.42.39.64.81,1.47,1.21,3.23,1.21,5.28,0,1.79-.3,3.36-.91,4.7Z"/>
        <path class="cls-1" d="M66.97,48.46c-1.11-2.15-2.65-3.79-4.63-4.89-1.97-1.11-4.23-1.66-6.76-1.66-2.22,0-4.23.41-6.04,1.24-1.81.83-3.26,1.96-4.35,3.41v-15.4h-8.46v44.7h8.46v-18.49c0-2.66.67-4.7,2.02-6.13,1.35-1.43,3.19-2.14,5.53-2.14s4.11.71,5.43,2.14c1.33,1.43,2,3.47,2,6.13v18.49h8.46v-19.64c0-3.02-.55-5.61-1.66-7.76Z"/>
        <path class="cls-1" d="M117.96,68.78h0l-6.5-7.3-2.05-2.3,13.24-15.09h0l1.5-1.71h-11l-2.35,2.97-8.88,11.23v-25.43h-8.46v44.7h8.46v-14.26l.66.83,6.07,7.62,4.63,5.81h11l-6.3-7.07Z"/>
      </g>
    </g>
  </g>
</svg>